# xmcd
#
# Track frame offsets:
#	150
#	38922
#	57083
#	93268
#	108305
#	132470
#	155208
#	186046
#	203036
#	246306
#	264340
#	302538
#
# Disc length: 4515 seconds
#
# Revision: 1
# Processed by: cddbd v1.5.2PL0 Copyright (c) Steve Scherf et al.
# Submitted via: audiograbber 1.83.01
#
DISCID=a111a10c
DTITLE=Stieg Larsson - Dietmar Bär - Verdammnis Teil 2 der Triologie CD 04
DYEAR=2007
DGENRE=Hörbuch
TTITLE0=36 Verdammnis
TTITLE1=37 Verdammnis
TTITLE2=38 Verdammnis
TTITLE3=39 Verdammnis
TTITLE4=40 Verdammnis
TTITLE5=41 Verdammnis
TTITLE6=42 Verdammnis
TTITLE7=43 Verdammnis
TTITLE8=44 Verdammnis
TTITLE9=45 Verdammnis
TTITLE10=46 Verdammnis
TTITLE11=47 Verdammnis
EXTD=gelesen von Dietmar Bär
EXTT0=
EXTT1=
EXTT2=
EXTT3=
EXTT4=
EXTT5=
EXTT6=
EXTT7=
EXTT8=
EXTT9=
EXTT10=
EXTT11=
PLAYORDER=
